<svg width="32" height="32" viewBox="0 0 32 32" fill="none" xmlns="http://www.w3.org/2000/svg">
<circle cx="16" cy="16" r="16" fill="black"/>
<path d="M12.8375 18.8577C12.4733 18.8577 12.1622 18.5915 12.096 18.2321L10.0105 5.8817C9.97736 5.68207 10.0237 5.48244 10.1363 5.31608C10.2554 5.14972 10.4276 5.04325 10.6196 5.00998C11.03 4.94344 11.414 5.21627 11.4869 5.62883L13.579 17.9793C13.6121 18.1789 13.5657 18.3785 13.4532 18.5449C13.334 18.7112 13.1619 18.8177 12.9699 18.851C12.9235 18.8577 12.8772 18.8577 12.8375 18.8577Z" fill="white"/>
<path d="M12.8375 18.8577C12.4733 18.8577 12.1622 18.5915 12.096 18.2321L10.0105 5.8817C9.97736 5.68207 10.0237 5.48244 10.1363 5.31608C10.2554 5.14972 10.4276 5.04325 10.6196 5.00998C11.03 4.94344 11.414 5.21627 11.4869 5.62883L13.579 17.9793C13.6121 18.1789 13.5657 18.3785 13.4532 18.5449C13.334 18.7112 13.1619 18.8177 12.9699 18.851C12.9235 18.8577 12.8772 18.8577 12.8375 18.8577Z" fill="url(#paint0_linear_1827_41593)"/>
<path d="M16.3404 13.162C15.1487 13.162 14.0364 13.5213 13.1029 14.1402L13.3545 15.6374C14.1556 14.9387 15.195 14.5128 16.3338 14.5128C18.8429 14.5128 20.8821 16.5623 20.8821 19.0843C20.8821 21.6063 18.8429 23.6558 16.3338 23.6558C13.8245 23.6558 11.7854 21.6063 11.7854 19.0843C11.7854 18.7516 11.8251 18.4189 11.8913 18.1061L11.4875 15.7239C10.832 16.6755 10.4414 17.8333 10.4414 19.0843C10.4414 22.3449 13.083 25 16.3271 25C19.5712 25 22.2129 22.3449 22.2129 19.0843C22.2261 15.8171 19.5845 13.162 16.3404 13.162Z" fill="white"/>
<path d="M16.3404 13.162C15.1487 13.162 14.0364 13.5213 13.1029 14.1402L13.3545 15.6374C14.1556 14.9387 15.195 14.5128 16.3338 14.5128C18.8429 14.5128 20.8821 16.5623 20.8821 19.0843C20.8821 21.6063 18.8429 23.6558 16.3338 23.6558C13.8245 23.6558 11.7854 21.6063 11.7854 19.0843C11.7854 18.7516 11.8251 18.4189 11.8913 18.1061L11.4875 15.7239C10.832 16.6755 10.4414 17.8333 10.4414 19.0843C10.4414 22.3449 13.083 25 16.3271 25C19.5712 25 22.2129 22.3449 22.2129 19.0843C22.2261 15.8171 19.5845 13.162 16.3404 13.162Z" fill="url(#paint1_linear_1827_41593)"/>
<path d="M16.7561 21.4147C16.9282 21.8273 16.7362 22.2997 16.3258 22.4728C15.9152 22.6458 15.4452 22.4528 15.2731 22.0402C15.1009 21.6277 15.2929 21.1552 15.7034 20.9822C16.1139 20.8159 16.5839 21.0088 16.7561 21.4147Z" fill="white"/>
<path d="M16.7561 21.4147C16.9282 21.8273 16.7362 22.2997 16.3258 22.4728C15.9152 22.6458 15.4452 22.4528 15.2731 22.0402C15.1009 21.6277 15.2929 21.1552 15.7034 20.9822C16.1139 20.8159 16.5839 21.0088 16.7561 21.4147Z" fill="url(#paint2_linear_1827_41593)"/>
<path d="M19.26 20.4748C19.4321 20.8873 19.2401 21.3598 18.8297 21.5328C18.4192 21.7058 17.9491 21.5129 17.777 21.1003C17.6048 20.6877 17.7968 20.2152 18.2073 20.0423C18.6178 19.8759 19.0878 20.0689 19.26 20.4748Z" fill="white"/>
<path d="M19.26 20.4748C19.4321 20.8873 19.2401 21.3598 18.8297 21.5328C18.4192 21.7058 17.9491 21.5129 17.777 21.1003C17.6048 20.6877 17.7968 20.2152 18.2073 20.0423C18.6178 19.8759 19.0878 20.0689 19.26 20.4748Z" fill="url(#paint3_linear_1827_41593)"/>
<path d="M17.2932 18.7507C17.4653 19.1633 17.2733 19.6357 16.8628 19.8088C16.4524 19.9818 15.9823 19.7888 15.8102 19.3762C15.638 18.9636 15.8301 18.4912 16.2405 18.3182C16.651 18.1452 17.1211 18.3382 17.2932 18.7507Z" fill="white"/>
<path d="M17.2932 18.7507C17.4653 19.1633 17.2733 19.6357 16.8628 19.8088C16.4524 19.9818 15.9823 19.7888 15.8102 19.3762C15.638 18.9636 15.8301 18.4912 16.2405 18.3182C16.651 18.1452 17.1211 18.3382 17.2932 18.7507Z" fill="url(#paint4_linear_1827_41593)"/>
<path d="M14.8039 19.5755C14.9761 19.9881 14.7841 20.4606 14.3736 20.6336C13.9631 20.8066 13.493 20.6136 13.3209 20.2011C13.1488 19.7885 13.3408 19.316 13.7513 19.143C14.1617 18.97 14.6318 19.163 14.8039 19.5755Z" fill="white"/>
<path d="M14.8039 19.5755C14.9761 19.9881 14.7841 20.4606 14.3736 20.6336C13.9631 20.8066 13.493 20.6136 13.3209 20.2011C13.1488 19.7885 13.3408 19.316 13.7513 19.143C14.1617 18.97 14.6318 19.163 14.8039 19.5755Z" fill="url(#paint5_linear_1827_41593)"/>
<path d="M19.7766 17.9264C19.9487 18.3389 19.7567 18.8114 19.3462 18.9844C18.9358 19.1574 18.4657 18.9645 18.2936 18.5519C18.1214 18.1393 18.3134 17.6668 18.7239 17.4939C19.1343 17.3208 19.6045 17.5138 19.7766 17.9264Z" fill="white"/>
<path d="M19.7766 17.9264C19.9487 18.3389 19.7567 18.8114 19.3462 18.9844C18.9358 19.1574 18.4657 18.9645 18.2936 18.5519C18.1214 18.1393 18.3134 17.6668 18.7239 17.4939C19.1343 17.3208 19.6045 17.5138 19.7766 17.9264Z" fill="url(#paint6_linear_1827_41593)"/>
<path d="M17.8293 16.0834C18.0015 16.496 17.8094 16.9684 17.399 17.1415C16.9885 17.3145 16.5184 17.1215 16.3463 16.7089C16.1742 16.2964 16.3661 15.8239 16.7766 15.6509C17.1871 15.4846 17.6572 15.6775 17.8293 16.0834Z" fill="white"/>
<path d="M17.8293 16.0834C18.0015 16.496 17.8094 16.9684 17.399 17.1415C16.9885 17.3145 16.5184 17.1215 16.3463 16.7089C16.1742 16.2964 16.3661 15.8239 16.7766 15.6509C17.1871 15.4846 17.6572 15.6775 17.8293 16.0834Z" fill="url(#paint7_linear_1827_41593)"/>
<path d="M15.3127 17.0206C15.4849 17.4332 15.2929 17.9056 14.8824 18.0787C14.4719 18.2517 14.0018 18.0587 13.8297 17.6461C13.6576 17.2335 13.8496 16.7611 14.26 16.5881C14.6705 16.4151 15.1406 16.6081 15.3127 17.0206Z" fill="white"/>
<path d="M15.3127 17.0206C15.4849 17.4332 15.2929 17.9056 14.8824 18.0787C14.4719 18.2517 14.0018 18.0587 13.8297 17.6461C13.6576 17.2335 13.8496 16.7611 14.26 16.5881C14.6705 16.4151 15.1406 16.6081 15.3127 17.0206Z" fill="url(#paint8_linear_1827_41593)"/>
<defs>
<linearGradient id="paint0_linear_1827_41593" x1="10" y1="18.8577" x2="13.8587" y2="18.8577" gradientUnits="userSpaceOnUse">
<stop stop-color="#C9FF00"/>
<stop offset="1" stop-color="#1CD5CF"/>
</linearGradient>
<linearGradient id="paint1_linear_1827_41593" x1="10.4414" y1="25" x2="23.0958" y2="25" gradientUnits="userSpaceOnUse">
<stop stop-color="#C9FF00"/>
<stop offset="1" stop-color="#1CD5CF"/>
</linearGradient>
<linearGradient id="paint2_linear_1827_41593" x1="15.21" y1="22.5362" x2="16.9399" y2="22.5362" gradientUnits="userSpaceOnUse">
<stop stop-color="#C9FF00"/>
<stop offset="1" stop-color="#1CD5CF"/>
</linearGradient>
<linearGradient id="paint3_linear_1827_41593" x1="17.7138" y1="21.5963" x2="19.4438" y2="21.5963" gradientUnits="userSpaceOnUse">
<stop stop-color="#C9FF00"/>
<stop offset="1" stop-color="#1CD5CF"/>
</linearGradient>
<linearGradient id="paint4_linear_1827_41593" x1="15.7471" y1="19.8722" x2="17.477" y2="19.8722" gradientUnits="userSpaceOnUse">
<stop stop-color="#C9FF00"/>
<stop offset="1" stop-color="#1CD5CF"/>
</linearGradient>
<linearGradient id="paint5_linear_1827_41593" x1="13.2578" y1="20.697" x2="14.9877" y2="20.697" gradientUnits="userSpaceOnUse">
<stop stop-color="#C9FF00"/>
<stop offset="1" stop-color="#1CD5CF"/>
</linearGradient>
<linearGradient id="paint6_linear_1827_41593" x1="18.2305" y1="19.0478" x2="19.9604" y2="19.0478" gradientUnits="userSpaceOnUse">
<stop stop-color="#C9FF00"/>
<stop offset="1" stop-color="#1CD5CF"/>
</linearGradient>
<linearGradient id="paint7_linear_1827_41593" x1="16.2832" y1="17.2049" x2="18.0131" y2="17.2049" gradientUnits="userSpaceOnUse">
<stop stop-color="#C9FF00"/>
<stop offset="1" stop-color="#1CD5CF"/>
</linearGradient>
<linearGradient id="paint8_linear_1827_41593" x1="13.7666" y1="18.1421" x2="15.4965" y2="18.1421" gradientUnits="userSpaceOnUse">
<stop stop-color="#C9FF00"/>
<stop offset="1" stop-color="#1CD5CF"/>
</linearGradient>
</defs>
</svg>
