<svg width="32" height="32" viewBox="0 0 32 32" fill="none" xmlns="http://www.w3.org/2000/svg">
<circle cx="16" cy="16" r="16" fill="url(#paint0_linear_3719_69928)"/>
<path d="M26.9244 9.68752C26.7664 9.41317 26.4143 9.32282 26.1448 9.48753L11.6662 18.3247C11.2972 17.632 11.0881 16.8405 11.0881 16C11.0881 13.271 13.292 11.0588 16.0108 11.0588C17.1781 11.0588 18.2498 11.4678 19.0937 12.1492L16.0135 14.2716L24.0182 9.63247C24.1907 9.5327 24.2498 9.31106 24.1499 9.13835C24.0449 8.95576 23.8072 8.90165 23.6338 9.02117L21.6736 10.3718C20.2292 8.90729 18.2259 8 16.0108 8C11.609 8 8.04077 11.5817 8.04077 16C8.04077 17.4226 8.41114 18.7581 9.05953 19.9158L5 22.3934L9.16781 20.103C10.5597 22.4372 13.1031 24 16.0108 24C20.4125 24 23.9807 20.4184 23.9807 16C23.9807 15.7506 23.9807 15.7931 23.9807 15.0447C23.9807 14.2963 24.2833 13.3388 25.3553 12.7623C25.4471 12.7129 25.4805 12.5972 25.4284 12.5063C25.3773 12.4179 25.2648 12.3873 25.1767 12.4386L15.6722 17.9468C16.7332 17.4941 17.5442 17.2188 18.6193 17.002C20.8588 16.5505 20.9158 17.6221 20.0509 18.831C19.4718 19.6403 18.1636 20.9402 16.0117 20.9402C14.2568 20.9402 12.7173 20.0188 11.8453 18.6315L26.7073 10.4654C26.9844 10.3134 27.0824 9.96188 26.9244 9.68752Z" fill="white"/>
<defs>
<linearGradient id="paint0_linear_3719_69928" x1="24.5" y1="2.5" x2="6.5" y2="28.5" gradientUnits="userSpaceOnUse">
<stop offset="0.396097" stop-color="#010101"/>
<stop offset="1" stop-color="#B35B2B"/>
</linearGradient>
</defs>
</svg>
