<svg width="32" height="32" viewBox="0 0 32 32" fill="none" xmlns="http://www.w3.org/2000/svg">
<circle cx="16" cy="16" r="16" fill="#131313"/>
<path d="M15.3065 6.46562C15.7509 6.24791 16.2191 6.26282 16.65 6.50737C18.1442 7.35882 19.6338 8.21772 21.116 9.08557C21.5932 9.3659 21.8377 9.81474 21.8392 10.3665C21.8482 12.3005 21.8452 14.233 21.8392 16.167C21.8392 16.2386 21.793 16.343 21.7349 16.3773C21.1608 16.7202 20.5792 17.0498 19.9485 17.4136C19.9485 17.2869 19.9485 17.1989 19.9485 17.1094C19.9485 15.1202 19.9425 13.1325 19.9529 11.1433C19.9544 10.7616 19.8232 10.5156 19.4847 10.3232C17.7505 9.33757 16.0253 8.33403 14.297 7.33645C14.2225 7.29321 14.1494 7.24698 14.0361 7.17839C14.4834 6.92639 14.883 6.67289 15.3065 6.46562ZM14.9889 26.2516C14.892 26.2024 14.8204 26.1681 14.7503 26.1279C12.4614 24.8082 10.1755 23.4796 7.87912 22.1704C7.23494 21.8036 6.94119 21.2802 6.94864 20.545C6.96207 18.9823 6.95759 17.4196 6.95014 15.8554C6.94716 15.1501 7.23345 14.6386 7.85377 14.2867C9.4657 13.3696 11.0687 12.4392 12.6717 11.5072C12.8103 11.4267 12.9117 11.4132 13.0564 11.4997C13.6096 11.8323 14.1733 12.1499 14.7623 12.4899C14.6504 12.557 14.5654 12.6077 14.4789 12.6584C12.7432 13.6604 11.0105 14.6654 9.27036 15.6615C8.98555 15.8241 8.85285 16.0358 8.85583 16.3668C8.86477 17.5985 8.86627 18.8302 8.85583 20.0619C8.85285 20.4019 8.98854 20.6181 9.2808 20.7851C11.1164 21.8349 12.9445 22.8966 14.7787 23.9493C14.9337 24.0388 14.9993 24.1312 14.9964 24.3161C14.98 24.9454 14.9889 25.5762 14.9889 26.2516ZM14.9889 22.7236C14.8294 22.6326 14.7145 22.5685 14.5997 22.5014C13.1444 21.6619 11.6905 20.8194 10.2322 19.9858C10.0741 19.8964 10.0159 19.7995 10.0174 19.616C10.0279 18.6692 10.0234 17.7223 10.0204 16.7754C10.0204 16.6472 10.0398 16.5592 10.1665 16.4876C10.7034 16.1879 11.2342 15.8748 11.7665 15.5691C11.8053 15.5467 11.8471 15.5303 11.9171 15.496C11.9171 15.8703 11.9171 16.2147 11.9171 16.5592C11.9171 17.1348 11.9261 17.7119 11.9142 18.2874C11.9067 18.6155 12.0335 18.8377 12.3198 18.9987C13.1444 19.4639 13.9585 19.9471 14.7831 20.4108C14.9457 20.5018 14.9949 20.6032 14.9919 20.7821C14.9815 21.4129 14.9889 22.0436 14.9889 22.7236ZM13.3084 10.2949C12.9997 10.113 12.7358 10.1145 12.4271 10.2949C10.6974 11.3059 8.96021 12.3035 7.22451 13.3055C7.15145 13.3473 7.0754 13.3875 6.94567 13.4576C6.99189 12.7985 6.85023 12.1767 7.0754 11.5743C7.19767 11.2447 7.4273 10.9972 7.7315 10.8213C9.1794 9.98473 10.6258 9.1467 12.0767 8.31464C12.6061 8.01045 13.1459 8.0179 13.6752 8.32359C15.3229 9.27196 16.9692 10.2233 18.6124 11.1776C18.6825 11.2179 18.7705 11.3089 18.7705 11.3775C18.7824 12.0544 18.7779 12.7329 18.7779 13.4591C18.18 13.1146 17.6282 12.7955 17.0765 12.4764C15.8195 11.7502 14.5595 11.03 13.3084 10.2949ZM24.8871 20.9402C24.8439 21.4725 24.5322 21.8498 24.0715 22.1152C22.3075 23.1292 20.5449 24.1491 18.7824 25.1661C18.2292 25.4852 17.676 25.8043 17.1213 26.1234C17.0541 26.1622 16.9856 26.195 16.8946 26.2427C16.8886 26.1502 16.8812 26.0831 16.8812 26.016C16.8797 25.4315 16.8842 24.8485 16.8782 24.2639C16.8767 24.1312 16.9095 24.0507 17.0318 23.9806C19.6025 22.5014 22.1718 21.0177 24.7395 19.5355C24.7783 19.5132 24.8215 19.4953 24.8946 19.461C24.8946 19.9799 24.9259 20.463 24.8871 20.9402ZM24.9006 17.26C24.8961 17.8654 24.5695 18.2904 24.0521 18.5886C22.042 19.7443 20.0335 20.9059 18.0249 22.066C17.6581 22.2777 17.2897 22.488 16.8961 22.7146C16.8901 22.6147 16.8827 22.5491 16.8827 22.482C16.8812 21.9064 16.8886 21.3294 16.8782 20.7538C16.8752 20.5898 16.9304 20.5033 17.072 20.4213C18.8987 19.373 20.7194 18.3128 22.549 17.2705C22.8741 17.0856 23.0172 16.8574 23.0143 16.4757C23.0008 14.4865 23.0083 12.4973 23.0083 10.5081C23.0083 10.4142 23.0083 10.3187 23.0083 10.1607C23.4855 10.4485 23.9328 10.6856 24.3414 10.9748C24.7142 11.2388 24.9021 11.6384 24.9035 12.0992C24.908 13.8185 24.9125 15.5392 24.9006 17.26Z" fill="white"/>
</svg>
