<svg width="32" height="32" viewBox="0 0 32 32" fill="none" xmlns="http://www.w3.org/2000/svg">
<circle cx="16" cy="16" r="16" fill="black"/>
<path d="M16.0136 11.4925C17.5273 11.4925 18.7544 10.263 18.7544 8.74626C18.7544 7.22954 17.5273 6 16.0136 6C14.4999 6 13.2728 7.22954 13.2728 8.74626C13.2728 10.263 14.4999 11.4925 16.0136 11.4925Z" fill="#FF931E"/>
<path d="M23.6303 17.2338C22.3195 16.4776 20.6412 16.9254 19.8865 18.2388C19.6283 18.6866 19.5092 19.1841 19.5191 19.6717C19.5489 20.8856 18.4565 21.5124 17.4238 20.8856C17.384 20.8657 17.3443 20.8358 17.2947 20.8159C16.252 20.2289 16.252 18.9851 17.2947 18.408C18.1487 17.9403 18.7346 17.0348 18.7346 15.9901C18.7346 15.9702 18.7346 15.9503 18.7346 15.9304C18.7048 14.7164 19.7971 14.0896 20.8299 14.7164C21.6541 15.2239 22.7266 15.2637 23.6204 14.7463C24.9312 13.9901 25.378 12.3085 24.6233 10.9951C23.8686 9.68163 22.1904 9.23387 20.8796 9.99008C19.9858 10.5075 19.4893 11.4627 19.5092 12.4279C19.5389 13.6418 18.4466 14.2687 17.4238 13.6418C17.0067 13.3831 16.5201 13.2339 15.9938 13.2339C15.4675 13.2339 14.9809 13.3831 14.5638 13.6319C13.531 14.2488 12.4486 13.6219 12.4784 12.4179C12.4983 11.4428 12.0017 10.4975 11.108 9.98013C9.79719 9.22392 8.11895 9.68163 7.36424 10.9951C6.60952 12.3085 7.06632 13.9901 8.37714 14.7463C9.27088 15.2637 10.3434 15.214 11.1676 14.7164C12.2004 14.0896 13.2828 14.7164 13.253 15.9304C13.253 15.9503 13.253 15.9702 13.253 15.9901C13.253 17.0348 13.8289 17.9403 14.6929 18.408C15.7356 18.995 15.7356 20.2388 14.6929 20.8159C14.6532 20.8358 14.6135 20.8657 14.5737 20.8856C13.541 21.5025 12.4585 20.8756 12.4883 19.6717C12.4983 19.1841 12.3791 18.6866 12.1209 18.2289C11.3662 16.9154 9.68796 16.4677 8.37714 17.2239C7.06632 18 6.61945 19.6816 7.37417 20.995C8.12888 22.3085 9.80712 22.7562 11.1179 22C11.1378 21.9901 11.1477 21.9801 11.1676 21.9702C12.2004 21.3433 13.2828 21.9702 13.253 23.1841C13.253 23.204 13.253 23.2239 13.253 23.2537C13.253 24.7662 14.4844 26 15.9938 26C17.5032 26 18.7346 24.7662 18.7346 23.2537C18.7346 23.2338 18.7346 23.2139 18.7346 23.194C18.7048 21.9801 19.7971 21.3532 20.8299 21.9801C20.8498 21.9901 20.8696 22 20.8895 22.0199C22.2003 22.7761 23.8785 22.3284 24.6333 21.0149C25.388 19.6717 24.9411 17.9901 23.6303 17.2338Z" fill="#FF931E"/>
</svg>
