<svg width="32" height="32" viewBox="0 0 32 32" fill="none" xmlns="http://www.w3.org/2000/svg">
<path fill-rule="evenodd" clip-rule="evenodd" d="M15.9592 32C20.7123 32 24.9826 29.9381 27.92 26.6617C26.5536 25.4771 24.4945 25.4051 23.0398 26.5761L22.7619 26.7996C20.0985 28.9432 16.2176 28.6267 13.9388 26.0799C12.6959 24.6908 10.5674 24.5491 9.1503 25.7609L5.94623 28.5008C8.69048 30.6906 12.1715 32 15.9592 32ZM21.1601 24.2523C23.6969 22.2105 27.2625 22.2837 29.7025 24.2558C31.161 21.8455 32 19.0205 32 16C32 12.6437 30.9641 9.52889 29.1934 6.95618C28.0521 6.71372 26.8151 6.9969 25.8758 7.82695L25.6087 8.0632C23.0472 10.3272 19.1559 10.1896 16.7617 7.75044C15.4558 6.42013 13.323 6.37644 11.9635 7.65219L8.23489 11.1511L6.18375 8.97641L9.91234 5.47749C12.459 3.08771 16.4544 3.16955 18.9005 5.66158C20.1787 6.96371 22.256 7.03716 23.6234 5.82854L23.8906 5.5923C24.7207 4.85866 25.6809 4.36406 26.6864 4.10395C23.8445 1.55266 20.0836 0 15.9592 0C7.81628 0 1.09053 6.05211 0.0563325 13.8927C2.52966 12.7088 5.58049 13.1644 7.59714 15.2243C8.87026 16.5247 10.9202 16.6619 12.3561 15.543L14.4409 13.9184C17.0608 11.8767 20.7646 11.9755 23.2713 14.1541L27.3301 17.6812L25.3638 19.9324L21.305 16.4053C19.8795 15.1666 17.7735 15.1103 16.2837 16.2713L14.199 17.8958C11.5608 19.9517 7.79451 19.6995 5.45547 17.3103C4.09533 15.921 1.8708 15.8725 0.451132 17.2013L0 17.6235C0.337616 20.9653 1.70619 24.0036 3.78366 26.4172L7.20196 23.4941C9.85649 21.2241 13.8439 21.4898 16.1721 24.0918C17.3886 25.4512 19.4603 25.6202 20.8822 24.476L21.1601 24.2523Z" fill="url(#paint0_linear_3577_70013)"/>
<defs>
<linearGradient id="paint0_linear_3577_70013" x1="15.9731" y1="31.865" x2="15.9731" y2="0" gradientUnits="userSpaceOnUse">
<stop stop-color="#B52A2A"/>
<stop offset="1" stop-color="#780000"/>
</linearGradient>
</defs>
</svg>
