<svg width="32" height="32" viewBox="0 0 32 32" fill="none" xmlns="http://www.w3.org/2000/svg">
<circle cx="16" cy="16" r="16" fill="white"/>
<path d="M25.5798 20.5404L22.1527 15.8584C21.7803 15.3497 21.229 15.0449 20.6419 14.9777C20.5083 14.962 20.389 14.8841 20.3221 14.7665C20.2541 14.6489 20.2469 14.506 20.3007 14.3813C20.5357 13.8365 20.55 13.2042 20.297 12.6258L17.9785 7.30069C17.6348 6.50996 16.858 6 16 6C15.142 6 14.3652 6.51116 14.0215 7.30069L11.703 12.6258C11.4512 13.2042 11.4643 13.8365 11.6994 14.3813C11.7531 14.506 11.7447 14.6489 11.6779 14.7665C11.6099 14.8841 11.4917 14.962 11.3581 14.9777C10.771 15.0449 10.2197 15.3497 9.84738 15.8584L6.42024 20.5404C5.9119 21.2351 5.86059 22.1663 6.28898 22.9138C6.71856 23.6601 7.54671 24.0812 8.39873 23.9865L14.1445 23.3434C14.7686 23.2738 15.3067 22.9462 15.6576 22.4686C15.7375 22.3595 15.8651 22.2946 16 22.2946C16.1348 22.2946 16.2613 22.3595 16.3425 22.4686C16.6933 22.9462 17.2315 23.2738 17.8556 23.3434L23.6013 23.9865C24.4533 24.0825 25.2815 23.6613 25.711 22.9138C26.1394 22.1663 26.0881 21.2351 25.5798 20.5404ZM13.2017 13.2942L15.5239 7.96303C15.6074 7.77225 15.7948 7.64866 16.0012 7.64866C16.2077 7.64866 16.395 7.77225 16.4785 7.96303L18.8007 13.2942C18.8735 13.4622 18.858 13.6566 18.7578 13.8102C18.6575 13.9637 18.4881 14.0561 18.3042 14.0561H13.697C13.5144 14.0561 13.3437 13.9637 13.2435 13.8102C13.1433 13.6566 13.1277 13.4622 13.2005 13.2942H13.2017ZM14.3938 21.4103C14.3115 21.5747 14.1516 21.6851 13.9702 21.7055L8.21853 22.3486C8.01328 22.3714 7.81281 22.2706 7.709 22.0907C7.60518 21.9107 7.6183 21.6863 7.74122 21.5183L11.1719 16.8315C11.2805 16.6839 11.4547 16.5999 11.6373 16.6107C11.8199 16.6203 11.9846 16.7223 12.0764 16.8819L12.08 16.8879L14.3771 20.8884L14.3807 20.8944C14.4726 21.0539 14.4773 21.2483 14.3951 21.4115L14.3938 21.4103ZM16.4725 19.6009C16.3747 19.7701 16.1957 19.8756 16 19.8756C15.8055 19.8756 15.6254 19.7712 15.5274 19.602L13.7626 16.5291C13.6647 16.3599 13.6647 16.1499 13.7626 15.9807C13.8604 15.8116 14.0394 15.706 14.2351 15.706H17.7637C17.9582 15.706 18.1384 15.8091 18.2363 15.9795C18.3341 16.1499 18.3341 16.3587 18.2363 16.5279L16.4725 19.6009ZM24.2922 22.0907C24.1884 22.2706 23.9891 22.3726 23.7827 22.3498L18.031 21.7067C17.8496 21.6863 17.6897 21.5759 17.6074 21.4115C17.5251 21.2471 17.5298 21.0527 17.6217 20.8944L17.6253 20.8884L19.9223 16.8879L19.926 16.8819C20.0178 16.7223 20.1825 16.6203 20.3651 16.6107C20.5476 16.6011 20.7219 16.6839 20.8304 16.8315L24.2612 21.5183C24.3841 21.6863 24.3961 21.9107 24.2934 22.0907H24.2922Z" fill="#E81899"/>
</svg>
